<?xml version="1.0" standalone="no"?>
<!DOCTYPE svg PUBLIC "-//W3C//DTD SVG 20010904//EN"
 "http://www.w3.org/TR/2001/REC-SVG-20010904/DTD/svg10.dtd">
<svg version="1.0" xmlns="http://www.w3.org/2000/svg"
 width="700.000000pt" height="700.000000pt" viewBox="0 0 700.000000 700.000000"
 preserveAspectRatio="xMidYMid meet">
<metadata>
Created by potrace 1.14, written by Peter Selinger 2001-2017
</metadata>
<g transform="translate(0.000000,700.000000) scale(0.100000,-0.100000)"
fill="#000000" stroke="none">
<path d="M5429 6993 c-1 -5 -2 -44 -3 -88 l-1 -80 -170 0 c-93 0 -172 -3 -175
-7 -3 -4 -6 -44 -5 -88 l1 -80 -176 0 -176 0 1 -85 c0 -49 -4 -86 -10 -88 -5
-2 -45 -3 -87 -2 l-78 1 0 -88 0 -87 -87 -3 -88 -3 1 -82 c0 -51 -4 -83 -10
-84 -6 -1 -360 -2 -786 -3 l-775 -1 -3 -87 -3 -88 -262 0 -263 0 1 -94 c0 -61
-3 -92 -10 -88 -5 3 -45 7 -87 7 l-78 1 0 -88 0 -88 -87 -1 c-49 0 -127 0
-176 1 l-87 1 0 -89 0 -88 -81 1 c-47 1 -83 -3 -87 -9 -4 -6 -7 -40 -8 -76 -1
-36 -2 -71 -3 -77 -1 -9 -25 -13 -86 -13 l-85 0 0 -88 0 -88 -78 1 c-42 1 -82
0 -87 -2 -7 -2 -11 -66 -10 -183 1 -99 -2 -176 -5 -172 -3 4 -42 7 -87 8 l-83
0 0 -176 0 -177 -78 2 c-42 1 -82 0 -88 -2 -6 -2 -10 -37 -9 -91 l1 -87 -88 3
-88 3 0 -175 0 -176 -88 0 -88 0 1 -88 1 -88 -88 1 -88 1 0 -87 0 -88 -87 -3
-88 -3 1 -82 c0 -52 -4 -83 -10 -84 -6 -1 -45 -2 -86 -3 l-75 -1 -3 -262 -2
-263 88 0 88 0 -1 -175 -1 -175 173 0 c108 0 173 -4 174 -10 1 -5 3 -41 4 -80
1 -38 3 -74 4 -78 0 -5 39 -8 86 -7 l85 1 0 -176 0 -175 -87 0 -88 0 0 -263 0
-262 88 0 87 0 0 -88 0 -87 -87 0 -88 0 0 -85 0 -85 -88 -3 -87 -3 0 -262 0
-262 435 0 c282 0 436 -3 438 -10 2 -5 3 -45 2 -87 l-1 -78 613 0 613 0 0 88
0 88 175 -1 175 0 0 87 0 88 88 0 87 0 0 -175 -1 -175 88 0 88 0 0 -88 0 -89
88 2 87 1 0 -88 0 -88 525 0 526 0 -1 88 -1 88 166 -1 c91 -1 170 0 175 2 7 2
10 95 10 263 l0 260 175 0 176 0 -1 -85 c-1 -47 1 -85 4 -86 3 -1 43 -2 89 -3
l82 -2 0 88 0 88 176 0 175 0 -3 88 -3 88 90 -1 90 0 0 347 c0 302 -2 347 -15
351 -8 2 -48 3 -87 2 l-73 -1 0 176 0 176 85 -1 c54 -1 85 3 86 9 1 6 2 84 3
173 2 185 11 170 -104 168 l-75 -1 3 263 3 263 -88 0 -88 0 0 175 1 175 -89 0
-88 0 3 88 3 87 520 0 520 0 3 88 3 87 174 0 174 0 3 88 3 87 75 1 c41 1 80 2
85 3 6 0 10 35 10 86 l-1 85 88 0 88 0 0 88 0 88 -89 -1 -88 -1 2 88 1 88 -88
0 -88 0 0 263 0 264 -88 -2 -88 -2 1 89 1 88 -88 0 -88 0 0 88 0 88 85 -1 c47
-1 86 1 86 4 1 3 2 160 3 349 1 298 -1 342 -14 343 -8 1 -46 2 -85 3 l-70 1
-5 175 -5 175 -82 0 c-46 -1 -84 1 -84 4 -1 3 -2 83 -3 176 l-2 170 86 0 85 0
3 88 3 87 87 0 88 0 -2 83 c-1 45 -2 85 -3 88 0 3 -39 5 -86 4 l-85 -1 0 88 0
88 -435 0 c-239 0 -436 -3 -436 -7z m701 -1913 c0 -5 -5 -10 -11 -10 -5 0 -7
5 -4 10 3 6 8 10 11 10 2 0 4 -4 4 -10z m-2809 -1053 c-10 -9 -11 -8 -5 6 3
10 9 15 12 12 3 -3 0 -11 -7 -18z m2800 0 c-10 -9 -11 -8 -5 6 3 10 9 15 12
12 3 -3 0 -11 -7 -18z m-4191 -347 c0 -5 -5 -10 -11 -10 -5 0 -7 5 -4 10 3 6
8 10 11 10 2 0 4 -4 4 -10z m1045 -1232 l0 -348 87 0 88 0 0 -263 0 -264 80 2
c43 1 83 -1 87 -4 5 -3 9 -42 8 -86 l0 -80 88 -3 87 -3 0 -349 0 -350 -175 0
-175 0 0 88 0 88 -88 -1 -87 -1 0 176 0 175 -437 0 -438 0 0 87 0 88 -87 0
-88 0 0 88 0 88 85 -1 85 0 3 88 3 87 87 0 88 0 -1 78 c0 42 -4 82 -7 88 -5 7
22 10 87 9 l95 -1 0 176 0 176 80 -1 c48 -1 84 3 88 9 5 6 8 86 8 177 l-1 166
87 -2 88 -1 0 88 0 89 88 -3 87 -3 0 -347z m355 -168 c0 -5 -5 -10 -11 -10 -5
0 -7 5 -4 10 3 6 8 10 11 10 2 0 4 -4 4 -10z m360 -354 c0 -3 -4 -8 -10 -11
-5 -3 -10 -1 -10 4 0 6 5 11 10 11 6 0 10 -2 10 -4z m1393 -361 c-3 -9 -8 -14
-10 -11 -3 3 -2 9 2 15 9 16 15 13 8 -4z"/>
</g>
</svg>
