<?xml version='1.0' encoding='utf-8'?>
<svg xmlns="http://www.w3.org/2000/svg" id="Capa_1" data-name="Capa 1" viewBox="0 0 9078 9078"><defs><style>.cls-1{fill:#181000;}.cls-2{fill:#613000;}.cls-3{fill:#412000;}.cls-4{fill:#c26000;}.cls-5{fill:#894000;}.cls-6{fill:#aa5000;}.cls-7{fill:#9a2f00;}.cls-8{fill:#fa7f6c;}.cls-9{fill:#faa08e;}.cls-10{fill:#f9c0b7;}.cls-11{fill:#d27000;}.cls-12{fill:#f9e0d7;}.cls-13{fill:#820000;}.cls-14{fill:#fb0000;}</style></defs><title>Donkey Kong Country Sprite</title><rect class="cls-1" x="453.9" y="8170.2" width="226.95" height="226.95"/><rect class="cls-2" x="680.85" y="8170.2" width="226.95" height="226.95"/><rect class="cls-3" x="453.9" y="7943.25" width="226.95" height="226.95"/><rect class="cls-4" x="680.85" y="7943.25" width="226.95" height="226.95"/><rect class="cls-4" x="1588.65" y="8170.2" width="226.95" height="226.95"/><rect class="cls-4" x="2950.35" y="8170.2" width="226.95" height="226.95"/><rect class="cls-5" x="4539" y="8170.2" width="226.95" height="226.95"/><rect class="cls-5" x="4085.1" y="8170.2" width="226.95" height="226.95"/><rect class="cls-6" x="4312.05" y="8397.15" width="226.95" height="226.95"/><rect class="cls-2" x="4539" y="8397.15" width="226.95" height="226.95"/><rect class="cls-2" x="5446.8" y="8851.05" width="226.95" height="226.95"/><rect class="cls-2" x="5900.7" y="8624.1" width="226.95" height="226.95"/><rect class="cls-6" x="5900.7" y="8170.2" width="226.95" height="226.95"/><rect class="cls-4" x="6127.65" y="7943.25" width="226.95" height="226.95"/><rect class="cls-3" x="1588.65" y="8397.15" width="226.95" height="226.95"/><rect class="cls-3" x="2950.35" y="8397.15" width="226.95" height="226.95"/><rect class="cls-3" x="2950.35" y="7716.3" width="226.95" height="226.95"/><rect class="cls-3" x="2723.4" y="7489.35" width="226.95" height="226.95"/><rect class="cls-2" x="2496.45" y="7489.35" width="226.95" height="226.95"/><rect class="cls-2" x="2269.5" y="7262.4" width="226.95" height="226.95"/><rect class="cls-3" x="1134.75" y="7262.4" width="226.95" height="226.95"/><rect class="cls-3" x="1361.7" y="7035.45" width="226.95" height="226.95"/><rect class="cls-2" x="1361.7" y="6808.5" width="226.95" height="226.95"/><rect class="cls-2" x="1134.75" y="6581.55" width="226.95" height="226.95"/><rect class="cls-2" x="1361.7" y="6354.6" width="226.95" height="226.95"/><rect class="cls-2" x="1361.7" y="5673.75" width="226.95" height="226.95"/><rect class="cls-5" x="1588.65" y="5446.8" width="226.95" height="226.95"/><rect class="cls-6" x="1815.6" y="5446.8" width="226.95" height="226.95"/><rect class="cls-6" x="1815.6" y="4992.9" width="226.95" height="226.95"/><rect class="cls-6" x="2042.55" y="5446.8" width="226.95" height="226.95"/><rect class="cls-4" x="1815.6" y="5219.85" width="226.95" height="226.95"/><rect class="cls-6" x="1361.7" y="4539" width="226.95" height="226.95"/><rect class="cls-6" x="1588.65" y="4539" width="226.95" height="226.95"/><rect class="cls-5" x="1815.6" y="4539" width="226.95" height="226.95"/><rect class="cls-6" x="1588.65" y="4765.95" width="226.95" height="226.95"/><rect class="cls-6" x="2042.55" y="4765.95" width="226.95" height="226.95"/><rect class="cls-4" x="1361.7" y="4765.95" width="226.95" height="226.95"/><rect class="cls-4" x="1815.6" y="4765.95" width="226.95" height="226.95"/><rect class="cls-4" x="2042.55" y="5219.85" width="226.95" height="226.95"/><rect class="cls-4" x="2042.55" y="4992.9" width="226.95" height="226.95"/><rect class="cls-7" x="2269.5" y="5446.8" width="226.95" height="226.95"/><rect class="cls-7" x="1588.65" y="5219.85" width="226.95" height="226.95"/><rect class="cls-7" x="1134.75" y="4992.9" width="226.95" height="226.95"/><rect class="cls-7" x="1361.7" y="4992.9" width="226.95" height="226.95"/><rect class="cls-7" x="1588.65" y="4992.9" width="226.95" height="226.95"/><rect class="cls-7" x="680.85" y="4765.95" width="226.95" height="226.95"/><rect class="cls-7" x="907.8" y="4765.95" width="226.95" height="226.95"/><rect class="cls-7" x="1134.75" y="4765.95" width="226.95" height="226.95"/><rect class="cls-7" x="907.8" y="4539" width="226.95" height="226.95"/><rect class="cls-7" x="1134.75" y="4539" width="226.95" height="226.95"/><rect class="cls-7" x="2950.35" y="2269.5" width="226.95" height="226.95"/><rect class="cls-7" x="3177.3" y="2042.55" width="226.95" height="226.95"/><rect class="cls-5" x="2269.5" y="5219.85" width="226.95" height="226.95"/><rect class="cls-2" x="1588.65" y="5900.7" width="226.95" height="226.95"/><rect class="cls-2" x="1815.6" y="5900.7" width="226.95" height="226.95"/><rect class="cls-2" x="1815.6" y="5673.75" width="226.95" height="226.95"/><rect class="cls-2" x="2042.55" y="5673.75" width="226.95" height="226.95"/><rect class="cls-2" x="2269.5" y="4992.9" width="226.95" height="226.95"/><rect class="cls-3" x="1588.65" y="7262.4" width="226.95" height="226.95"/><rect class="cls-3" x="1588.65" y="7035.45" width="226.95" height="226.95"/><rect class="cls-3" x="1588.65" y="6808.5" width="226.95" height="226.95"/><rect class="cls-3" x="1588.65" y="6581.55" width="226.95" height="226.95"/><rect class="cls-3" x="1588.65" y="6354.6" width="226.95" height="226.95"/><rect class="cls-3" x="1815.6" y="6354.6" width="226.95" height="226.95"/><rect class="cls-3" x="1361.7" y="6581.55" width="226.95" height="226.95"/><rect class="cls-3" x="1134.75" y="6808.5" width="226.95" height="226.95"/><rect class="cls-3" x="680.85" y="6808.5" width="226.95" height="226.95"/><rect class="cls-3" x="907.8" y="6581.55" width="226.95" height="226.95"/><rect class="cls-3" x="907.8" y="6354.6" width="226.95" height="226.95"/><rect class="cls-3" x="1134.75" y="6354.6" width="226.95" height="226.95"/><rect class="cls-3" x="1815.6" y="7035.45" width="226.95" height="226.95"/><rect class="cls-3" x="2042.55" y="7035.45" width="226.95" height="226.95"/><rect class="cls-3" x="1134.75" y="6127.65" width="226.95" height="226.95"/><rect class="cls-3" x="1134.75" y="5900.7" width="226.95" height="226.95"/><rect class="cls-3" x="1361.7" y="5900.7" width="226.95" height="226.95"/><rect class="cls-3" x="1134.75" y="5673.75" width="226.95" height="226.95"/><rect class="cls-3" x="1588.65" y="5673.75" width="226.95" height="226.95"/><rect class="cls-3" x="1134.75" y="5446.8" width="226.95" height="226.95"/><rect class="cls-3" x="680.85" y="5446.8" width="226.95" height="226.95"/><rect class="cls-3" x="1361.7" y="5446.8" width="226.95" height="226.95"/><rect class="cls-3" x="680.85" y="5219.85" width="226.95" height="226.95"/><rect class="cls-3" x="453.9" y="5219.85" width="226.95" height="226.95"/><rect class="cls-3" x="453.9" y="4992.9" width="226.95" height="226.95"/><rect class="cls-3" x="226.95" y="4765.95" width="226.95" height="226.95"/><rect class="cls-3" x="226.95" y="4539" width="226.95" height="226.95"/><rect class="cls-3" x="453.9" y="4539" width="226.95" height="226.95"/><rect class="cls-3" x="680.85" y="4312.05" width="226.95" height="226.95"/><rect class="cls-3" x="907.8" y="4085.1" width="226.95" height="226.95"/><rect class="cls-3" x="1134.75" y="4085.1" width="226.95" height="226.95"/><rect class="cls-3" x="1815.6" y="3858.15" width="226.95" height="226.95"/><rect class="cls-3" x="2042.55" y="3858.15" width="226.95" height="226.95"/><rect class="cls-3" x="2269.5" y="3858.15" width="226.95" height="226.95"/><rect class="cls-3" x="1815.6" y="3404.25" width="226.95" height="226.95"/><rect class="cls-3" x="2042.55" y="3404.25" width="226.95" height="226.95"/><rect class="cls-3" x="2269.5" y="3404.25" width="226.95" height="226.95"/><rect class="cls-3" x="1588.65" y="3177.3" width="226.95" height="226.95"/><rect class="cls-3" x="1361.7" y="3177.3" width="226.95" height="226.95"/><rect class="cls-3" x="1815.6" y="3177.3" width="226.95" height="226.95"/><rect class="cls-3" x="2042.55" y="3177.3" width="226.95" height="226.95"/><rect class="cls-3" x="1815.6" y="2950.35" width="226.95" height="226.95"/><rect class="cls-3" x="2042.55" y="2950.35" width="226.95" height="226.95"/><rect class="cls-3" x="1815.6" y="2723.4" width="226.95" height="226.95"/><rect class="cls-3" x="2042.55" y="2723.4" width="226.95" height="226.95"/><rect class="cls-3" x="1815.6" y="2496.45" width="226.95" height="226.95"/><rect class="cls-3" x="2042.55" y="2496.45" width="226.95" height="226.95"/><rect class="cls-3" x="3177.3" y="3631.2" width="226.95" height="226.95"/><rect class="cls-3" x="3177.3" y="3404.25" width="226.95" height="226.95"/><rect class="cls-3" x="2950.35" y="3177.3" width="226.95" height="226.95"/><rect class="cls-3" x="3177.3" y="3177.3" width="226.95" height="226.95"/><rect class="cls-3" x="3631.2" y="4539" width="226.95" height="226.95"/><rect class="cls-3" x="3631.2" y="4312.05" width="226.95" height="226.95"/><rect class="cls-3" x="3858.15" y="5219.85" width="226.95" height="226.95"/><rect class="cls-3" x="3858.15" y="4992.9" width="226.95" height="226.95"/><rect class="cls-3" x="4085.1" y="6127.65" width="226.95" height="226.95"/><rect class="cls-3" x="4085.1" y="5900.7" width="226.95" height="226.95"/><rect class="cls-7" x="4085.1" y="5219.85" width="226.95" height="226.95"/><rect class="cls-7" x="5446.8" y="5673.75" width="226.95" height="226.95"/><rect class="cls-7" x="4992.9" y="5219.85" width="226.95" height="226.95"/><rect class="cls-7" x="4992.9" y="4765.95" width="226.95" height="226.95"/><rect class="cls-7" x="4312.05" y="5900.7" width="226.95" height="226.95"/><rect class="cls-7" x="4539" y="6127.65" width="226.95" height="226.95"/><rect class="cls-7" x="4765.95" y="6808.5" width="226.95" height="226.95"/><rect class="cls-7" x="5673.75" y="6808.5" width="226.95" height="226.95"/><rect class="cls-7" x="5446.8" y="6581.55" width="226.95" height="226.95"/><rect class="cls-2" x="5673.75" y="6581.55" width="226.95" height="226.95"/><rect class="cls-2" x="5446.8" y="5900.7" width="226.95" height="226.95"/><rect class="cls-2" x="5673.75" y="5900.7" width="226.95" height="226.95"/><rect class="cls-2" x="5673.75" y="6127.65" width="226.95" height="226.95"/><rect class="cls-2" x="5673.75" y="6354.6" width="226.95" height="226.95"/><rect class="cls-1" x="5900.7" y="5900.7" width="226.95" height="226.95"/><rect class="cls-1" x="5900.7" y="6127.65" width="226.95" height="226.95"/><rect class="cls-1" x="5900.7" y="6354.6" width="226.95" height="226.95"/><rect class="cls-1" x="6127.65" y="5900.7" width="226.95" height="226.95"/><rect class="cls-1" x="6127.65" y="6127.65" width="226.95" height="226.95"/><rect class="cls-1" x="6127.65" y="6354.6" width="226.95" height="226.95"/><rect class="cls-1" x="6354.6" y="5900.7" width="226.95" height="226.95"/><rect class="cls-1" x="6354.6" y="6127.65" width="226.95" height="226.95"/><rect class="cls-1" x="6581.55" y="6127.65" width="226.95" height="226.95"/><rect class="cls-1" x="6808.5" y="6127.65" width="226.95" height="226.95"/><rect class="cls-1" x="7035.45" y="6127.65" width="226.95" height="226.95"/><rect class="cls-1" x="6581.55" y="5900.7" width="226.95" height="226.95"/><rect class="cls-1" x="6808.5" y="5900.7" width="226.95" height="226.95"/><rect class="cls-1" x="7035.45" y="5900.7" width="226.95" height="226.95"/><rect class="cls-1" x="5673.75" y="5673.75" width="226.95" height="226.95"/><rect class="cls-1" x="5900.7" y="5673.75" width="226.95" height="226.95"/><rect class="cls-1" x="6127.65" y="5673.75" width="226.95" height="226.95"/><rect class="cls-1" x="6354.6" y="5673.75" width="226.95" height="226.95"/><rect class="cls-1" x="6581.55" y="5673.75" width="226.95" height="226.95"/><rect class="cls-1" x="6808.5" y="5673.75" width="226.95" height="226.95"/><rect class="cls-1" x="7035.45" y="5673.75" width="226.95" height="226.95"/><rect class="cls-1" x="5673.75" y="5446.8" width="226.95" height="226.95"/><rect class="cls-1" x="5900.7" y="5446.8" width="226.95" height="226.95"/><rect class="cls-1" x="6127.65" y="5446.8" width="226.95" height="226.95"/><rect class="cls-1" x="6354.6" y="5446.8" width="226.95" height="226.95"/><rect class="cls-1" x="6581.55" y="5446.8" width="226.95" height="226.95"/><rect class="cls-1" x="6808.5" y="5446.8" width="226.95" height="226.95"/><rect class="cls-1" x="5673.75" y="5219.85" width="226.95" height="226.95"/><rect class="cls-1" x="5900.7" y="5219.85" width="226.95" height="226.95"/><rect class="cls-1" x="6127.65" y="5219.85" width="226.95" height="226.95"/><rect class="cls-1" x="6354.6" y="5219.85" width="226.95" height="226.95"/><rect class="cls-1" x="6581.55" y="5219.85" width="226.95" height="226.95"/><rect class="cls-1" x="6808.5" y="5219.85" width="226.95" height="226.95"/><rect class="cls-1" x="5673.75" y="4992.9" width="226.95" height="226.95"/><rect class="cls-1" x="5446.8" y="4992.9" width="226.95" height="226.95"/><rect class="cls-1" x="5900.7" y="4992.9" width="226.95" height="226.95"/><rect class="cls-1" x="6127.65" y="4992.9" width="226.95" height="226.95"/><rect class="cls-1" x="6354.6" y="4992.9" width="226.95" height="226.95"/><rect class="cls-1" x="5673.75" y="4765.95" width="226.95" height="226.95"/><rect class="cls-1" x="5446.8" y="4765.95" width="226.95" height="226.95"/><rect class="cls-1" x="5219.85" y="4765.95" width="226.95" height="226.95"/><rect class="cls-1" x="5219.85" y="4539" width="226.95" height="226.95"/><rect class="cls-1" x="5219.85" y="4312.05" width="226.95" height="226.95"/><rect class="cls-1" x="5900.7" y="4765.95" width="226.95" height="226.95"/><rect class="cls-1" x="6127.65" y="4765.95" width="226.95" height="226.95"/><rect class="cls-1" x="6354.6" y="4765.95" width="226.95" height="226.95"/><rect class="cls-1" x="6581.55" y="4992.9" width="226.95" height="226.95"/><rect class="cls-1" x="6808.5" y="4992.9" width="226.95" height="226.95"/><rect class="cls-1" x="6581.55" y="4765.95" width="226.95" height="226.95"/><rect class="cls-1" x="5673.75" y="4539" width="226.95" height="226.95"/><rect class="cls-1" x="5446.8" y="4539" width="226.95" height="226.95"/><rect class="cls-1" x="5900.7" y="4539" width="226.95" height="226.95"/><rect class="cls-1" x="6127.65" y="4539" width="226.95" height="226.95"/><rect class="cls-1" x="6354.6" y="4539" width="226.95" height="226.95"/><rect class="cls-1" x="6581.55" y="4539" width="226.95" height="226.95"/><rect class="cls-1" x="5673.75" y="4312.05" width="226.95" height="226.95"/><rect class="cls-1" x="5446.8" y="4312.05" width="226.95" height="226.95"/><rect class="cls-1" x="5900.7" y="4312.05" width="226.95" height="226.95"/><rect class="cls-1" x="6127.65" y="4312.05" width="226.95" height="226.95"/><rect class="cls-1" x="5673.75" y="4085.1" width="226.95" height="226.95"/><rect class="cls-1" x="5446.8" y="4085.1" width="226.95" height="226.95"/><rect class="cls-1" x="5900.7" y="4085.1" width="226.95" height="226.95"/><rect class="cls-1" x="5673.75" y="3858.15" width="226.95" height="226.95"/><rect class="cls-1" x="5446.8" y="3858.15" width="226.95" height="226.95"/><rect class="cls-1" x="5673.75" y="3631.2" width="226.95" height="226.95"/><rect class="cls-1" x="5446.8" y="3631.2" width="226.95" height="226.95"/><rect class="cls-1" x="5900.7" y="3858.15" width="226.95" height="226.95"/><rect class="cls-1" x="5446.8" y="3404.25" width="226.95" height="226.95"/><rect class="cls-1" x="5219.85" y="3404.25" width="226.95" height="226.95"/><rect class="cls-1" x="5446.8" y="3177.3" width="226.95" height="226.95"/><rect class="cls-1" x="5219.85" y="3177.3" width="226.95" height="226.95"/><rect class="cls-1" x="5446.8" y="2950.35" width="226.95" height="226.95"/><rect class="cls-1" x="5219.85" y="2950.35" width="226.95" height="226.95"/><rect class="cls-1" x="5446.8" y="2723.4" width="226.95" height="226.95"/><rect class="cls-1" x="5219.85" y="2723.4" width="226.95" height="226.95"/><rect class="cls-1" x="5446.8" y="2496.45" width="226.95" height="226.95"/><rect class="cls-1" x="5446.8" y="2269.5" width="226.95" height="226.95"/><rect class="cls-1" x="5673.75" y="2496.45" width="226.95" height="226.95"/><rect class="cls-1" x="5900.7" y="2496.45" width="226.95" height="226.95"/><rect class="cls-6" x="5900.7" y="2269.5" width="226.95" height="226.95"/><rect class="cls-1" x="5673.75" y="2269.5" width="226.95" height="226.95"/><rect class="cls-1" x="5446.8" y="2042.55" width="226.95" height="226.95"/><rect class="cls-1" x="5446.8" y="1815.6" width="226.95" height="226.95"/><rect class="cls-1" x="5446.8" y="1588.65" width="226.95" height="226.95"/><rect class="cls-1" x="5219.85" y="2496.45" width="226.95" height="226.95"/><rect class="cls-2" x="7716.3" y="453.9" width="226.95" height="226.95"/><rect class="cls-1" x="7943.25" y="453.9" width="226.95" height="226.95"/><rect class="cls-2" x="7716.3" y="226.95" width="226.95" height="226.95"/><rect class="cls-2" x="7716.3" width="226.95" height="226.95"/><rect class="cls-3" x="7943.25" y="226.95" width="226.95" height="226.95"/><rect class="cls-3" x="8170.2" y="226.95" width="226.95" height="226.95"/><rect class="cls-3" x="7943.25" width="226.95" height="226.95"/><rect class="cls-2" x="7489.35" width="226.95" height="226.95"/><rect class="cls-6" x="7035.45" y="453.9" width="226.95" height="226.95"/><rect class="cls-6" x="6808.5" y="453.9" width="226.95" height="226.95"/><rect class="cls-6" x="7262.4" y="680.85" width="226.95" height="226.95"/><rect class="cls-6" x="7716.3" y="907.8" width="226.95" height="226.95"/><rect class="cls-6" x="7716.3" y="1134.75" width="226.95" height="226.95"/><rect class="cls-3" x="7943.25" y="1134.75" width="226.95" height="226.95"/><rect class="cls-2" x="7943.25" y="1361.7" width="226.95" height="226.95"/><rect class="cls-3" x="8170.2" y="1588.65" width="226.95" height="226.95"/><rect class="cls-2" x="8170.2" y="1815.6" width="226.95" height="226.95"/><rect class="cls-8" x="8170.2" y="2042.55" width="226.95" height="226.95"/><rect class="cls-8" x="7943.25" y="2496.45" width="226.95" height="226.95"/><rect class="cls-8" x="8397.15" y="3177.3" width="226.95" height="226.95"/><rect class="cls-8" x="8397.15" y="3631.2" width="226.95" height="226.95"/><rect class="cls-8" x="8624.1" y="3631.2" width="226.95" height="226.95"/><rect class="cls-8" x="7943.25" y="4085.1" width="226.95" height="226.95"/><rect class="cls-8" x="8170.2" y="4085.1" width="226.95" height="226.95"/><rect class="cls-9" x="7943.25" y="1815.6" width="226.95" height="226.95"/><rect class="cls-9" x="7716.3" y="1588.65" width="226.95" height="226.95"/><rect class="cls-9" x="7489.35" y="1588.65" width="226.95" height="226.95"/><rect class="cls-9" x="7489.35" y="1361.7" width="226.95" height="226.95"/><rect class="cls-10" x="7262.4" y="1361.7" width="226.95" height="226.95"/><rect class="cls-10" x="7716.3" y="1815.6" width="226.95" height="226.95"/><rect class="cls-9" x="7262.4" y="1588.65" width="226.95" height="226.95"/><rect class="cls-8" x="7035.45" y="1588.65" width="226.95" height="226.95"/><rect class="cls-8" x="7035.45" y="1815.6" width="226.95" height="226.95"/><rect class="cls-8" x="7262.4" y="1815.6" width="226.95" height="226.95"/><rect class="cls-8" x="7489.35" y="2042.55" width="226.95" height="226.95"/><rect class="cls-8" x="7716.3" y="2042.55" width="226.95" height="226.95"/><rect class="cls-5" x="7489.35" y="1815.6" width="226.95" height="226.95"/><rect class="cls-6" x="7262.4" y="2042.55" width="226.95" height="226.95"/><rect class="cls-6" x="7262.4" y="2269.5" width="226.95" height="226.95"/><rect class="cls-6" x="7262.4" y="2496.45" width="226.95" height="226.95"/><rect class="cls-8" x="7035.45" y="2042.55" width="226.95" height="226.95"/><rect class="cls-8" x="6354.6" y="2042.55" width="226.95" height="226.95"/><rect class="cls-8" x="6127.65" y="2269.5" width="226.95" height="226.95"/><rect class="cls-8" x="5900.7" y="2042.55" width="226.95" height="226.95"/><rect class="cls-8" x="5900.7" y="1815.6" width="226.95" height="226.95"/><rect class="cls-8" x="5673.75" y="1815.6" width="226.95" height="226.95"/><rect class="cls-9" x="6354.6" y="2269.5" width="226.95" height="226.95"/><rect class="cls-9" x="5900.7" y="1588.65" width="226.95" height="226.95"/><rect class="cls-9" x="7943.25" y="2042.55" width="226.95" height="226.95"/><rect class="cls-6" x="7489.35" y="1134.75" width="226.95" height="226.95"/><rect class="cls-2" x="8170.2" y="2269.5" width="226.95" height="226.95"/><rect class="cls-2" x="7943.25" y="2269.5" width="226.95" height="226.95"/><rect class="cls-6" x="7035.45" y="680.85" width="226.95" height="226.95"/><rect class="cls-6" x="7035.45" y="1134.75" width="226.95" height="226.95"/><rect class="cls-6" x="6808.5" y="1361.7" width="226.95" height="226.95"/><rect class="cls-6" x="6581.55" y="1588.65" width="226.95" height="226.95"/><rect class="cls-5" x="6581.55" y="2042.55" width="226.95" height="226.95"/><rect class="cls-5" x="6581.55" y="2496.45" width="226.95" height="226.95"/><rect class="cls-6" x="6354.6" y="2496.45" width="226.95" height="226.95"/><rect class="cls-2" x="6127.65" y="2496.45" width="226.95" height="226.95"/><rect class="cls-5" x="6808.5" y="2496.45" width="226.95" height="226.95"/><rect class="cls-2" x="6581.55" y="2269.5" width="226.95" height="226.95"/><rect class="cls-2" x="7035.45" y="2496.45" width="226.95" height="226.95"/><rect class="cls-5" x="6127.65" y="1815.6" width="226.95" height="226.95"/><rect class="cls-5" x="6127.65" y="2042.55" width="226.95" height="226.95"/><rect class="cls-6" x="6354.6" y="1361.7" width="226.95" height="226.95"/><rect class="cls-6" x="6127.65" y="1588.65" width="226.95" height="226.95"/><rect class="cls-6" x="6581.55" y="680.85" width="226.95" height="226.95"/><rect class="cls-4" x="6808.5" y="680.85" width="226.95" height="226.95"/><rect class="cls-4" x="7489.35" y="680.85" width="226.95" height="226.95"/><rect class="cls-4" x="7489.35" y="907.8" width="226.95" height="226.95"/><rect class="cls-4" x="7716.3" y="1361.7" width="226.95" height="226.95"/><rect class="cls-4" x="7943.25" y="1588.65" width="226.95" height="226.95"/><rect class="cls-4" x="7262.4" y="907.8" width="226.95" height="226.95"/><rect class="cls-4" x="7262.4" y="1134.75" width="226.95" height="226.95"/><rect class="cls-4" x="7035.45" y="907.8" width="226.95" height="226.95"/><rect class="cls-4" x="6808.5" y="907.8" width="226.95" height="226.95"/><rect class="cls-4" x="6808.5" y="1134.75" width="226.95" height="226.95"/><rect class="cls-4" x="7035.45" y="1361.7" width="226.95" height="226.95"/><rect class="cls-4" x="6808.5" y="1588.65" width="226.95" height="226.95"/><rect class="cls-4" x="6808.5" y="1815.6" width="226.95" height="226.95"/><rect class="cls-4" x="6581.55" y="1815.6" width="226.95" height="226.95"/><rect class="cls-4" x="6581.55" y="1361.7" width="226.95" height="226.95"/><rect class="cls-4" x="6354.6" y="1588.65" width="226.95" height="226.95"/><rect class="cls-11" x="6354.6" y="1815.6" width="226.95" height="226.95"/><rect class="cls-4" x="6127.65" y="1361.7" width="226.95" height="226.95"/><rect class="cls-4" x="6354.6" y="1134.75" width="226.95" height="226.95"/><rect class="cls-11" x="7489.35" y="226.95" width="226.95" height="226.95"/><rect class="cls-11" x="7262.4" y="453.9" width="226.95" height="226.95"/><rect class="cls-6" x="7262.4" y="226.95" width="226.95" height="226.95"/><rect class="cls-6" x="7489.35" y="453.9" width="226.95" height="226.95"/><rect class="cls-1" x="5673.75" y="3404.25" width="226.95" height="226.95"/><rect class="cls-1" x="6127.65" y="4085.1" width="226.95" height="226.95"/><rect class="cls-1" x="6354.6" y="4312.05" width="226.95" height="226.95"/><rect class="cls-1" x="6581.55" y="4312.05" width="226.95" height="226.95"/><rect class="cls-12" x="7489.35" y="2496.45" width="226.95" height="226.95"/><rect class="cls-12" x="7716.3" y="2496.45" width="226.95" height="226.95"/><rect class="cls-10" x="7489.35" y="2723.4" width="226.95" height="226.95"/><rect class="cls-10" x="7716.3" y="2723.4" width="226.95" height="226.95"/><rect class="cls-10" x="7943.25" y="2950.35" width="226.95" height="226.95"/><rect class="cls-10" x="7943.25" y="3177.3" width="226.95" height="226.95"/><rect class="cls-10" x="7716.3" y="2950.35" width="226.95" height="226.95"/><rect class="cls-10" x="7716.3" y="3177.3" width="226.95" height="226.95"/><rect class="cls-10" x="7489.35" y="3177.3" width="226.95" height="226.95"/><rect class="cls-10" x="8170.2" y="3404.25" width="226.95" height="226.95"/><rect class="cls-10" x="7943.25" y="3404.25" width="226.95" height="226.95"/><rect class="cls-10" x="7716.3" y="3404.25" width="226.95" height="226.95"/><rect class="cls-10" x="6808.5" y="2723.4" width="226.95" height="226.95"/><rect class="cls-10" x="6581.55" y="2723.4" width="226.95" height="226.95"/><rect class="cls-10" x="6354.6" y="2723.4" width="226.95" height="226.95"/><rect class="cls-10" x="6354.6" y="2950.35" width="226.95" height="226.95"/><rect class="cls-9" x="6127.65" y="2723.4" width="226.95" height="226.95"/><rect class="cls-9" x="6127.65" y="2950.35" width="226.95" height="226.95"/><rect class="cls-10" x="6354.6" y="3177.3" width="226.95" height="226.95"/><rect class="cls-10" x="6581.55" y="3177.3" width="226.95" height="226.95"/><rect class="cls-10" x="7035.45" y="3177.3" width="226.95" height="226.95"/><rect class="cls-10" x="7035.45" y="3404.25" width="226.95" height="226.95"/><rect class="cls-10" x="6808.5" y="3404.25" width="226.95" height="226.95"/><rect class="cls-10" x="7262.4" y="3177.3" width="226.95" height="226.95"/><rect class="cls-9" x="7943.25" y="2723.4" width="226.95" height="226.95"/><rect class="cls-9" x="8170.2" y="2723.4" width="226.95" height="226.95"/><rect class="cls-9" x="7943.25" y="3631.2" width="226.95" height="226.95"/><rect class="cls-9" x="8170.2" y="3631.2" width="226.95" height="226.95"/><rect class="cls-9" x="7035.45" y="2723.4" width="226.95" height="226.95"/><rect class="cls-9" x="6808.5" y="3177.3" width="226.95" height="226.95"/><rect class="cls-9" x="6581.55" y="3404.25" width="226.95" height="226.95"/><rect class="cls-8" x="6127.65" y="3177.3" width="226.95" height="226.95"/><rect class="cls-8" x="6354.6" y="3404.25" width="226.95" height="226.95"/><rect class="cls-8" x="5900.7" y="2723.4" width="226.95" height="226.95"/><rect class="cls-5" x="5900.7" y="3177.3" width="226.95" height="226.95"/><rect class="cls-5" x="6127.65" y="3404.25" width="226.95" height="226.95"/><rect class="cls-2" x="5673.75" y="2950.35" width="226.95" height="226.95"/><rect class="cls-4" x="5900.7" y="2950.35" width="226.95" height="226.95"/><rect class="cls-3" x="5900.7" y="3631.2" width="226.95" height="226.95"/><rect class="cls-3" x="6127.65" y="3858.15" width="226.95" height="226.95"/><rect class="cls-3" x="6354.6" y="4085.1" width="226.95" height="226.95"/><rect class="cls-3" x="6808.5" y="4312.05" width="226.95" height="226.95"/><rect class="cls-3" x="7035.45" y="4312.05" width="226.95" height="226.95"/><rect class="cls-3" x="7262.4" y="4312.05" width="226.95" height="226.95"/><rect class="cls-3" x="7489.35" y="4312.05" width="226.95" height="226.95"/><rect class="cls-3" x="7716.3" y="4312.05" width="226.95" height="226.95"/><rect class="cls-3" x="7943.25" y="4312.05" width="226.95" height="226.95"/><rect class="cls-2" x="6127.65" y="3631.2" width="226.95" height="226.95"/><rect class="cls-3" x="5900.7" y="3404.25" width="226.95" height="226.95"/><rect class="cls-3" x="5673.75" y="3177.3" width="226.95" height="226.95"/><rect class="cls-3" x="5673.75" y="2723.4" width="226.95" height="226.95"/><rect class="cls-9" x="7262.4" y="2723.4" width="226.95" height="226.95"/><rect class="cls-9" x="7262.4" y="3404.25" width="226.95" height="226.95"/><rect class="cls-9" x="7489.35" y="3404.25" width="226.95" height="226.95"/><rect class="cls-5" x="8851.05" y="3858.15" width="226.95" height="226.95"/><rect class="cls-5" x="8624.1" y="3858.15" width="226.95" height="226.95"/><rect class="cls-1" x="8624.1" y="4085.1" width="226.95" height="226.95"/><rect class="cls-1" x="8397.15" y="4312.05" width="226.95" height="226.95"/><rect class="cls-1" x="8170.2" y="4312.05" width="226.95" height="226.95"/><rect class="cls-1" x="7943.25" y="4539" width="226.95" height="226.95"/><rect class="cls-1" x="7716.3" y="4539" width="226.95" height="226.95"/><rect class="cls-1" x="7489.35" y="4539" width="226.95" height="226.95"/><rect class="cls-1" x="7262.4" y="4539" width="226.95" height="226.95"/><rect class="cls-1" x="7035.45" y="4539" width="226.95" height="226.95"/><rect class="cls-1" x="6808.5" y="4539" width="226.95" height="226.95"/><rect class="cls-5" x="8397.15" y="3858.15" width="226.95" height="226.95"/><rect class="cls-6" x="7943.25" y="3858.15" width="226.95" height="226.95"/><rect class="cls-4" x="7716.3" y="4085.1" width="226.95" height="226.95"/><rect class="cls-6" x="7489.35" y="4085.1" width="226.95" height="226.95"/><rect class="cls-5" x="7262.4" y="4085.1" width="226.95" height="226.95"/><rect class="cls-5" x="7035.45" y="4085.1" width="226.95" height="226.95"/><rect class="cls-11" x="7262.4" y="3858.15" width="226.95" height="226.95"/><rect class="cls-6" x="7035.45" y="3858.15" width="226.95" height="226.95"/><rect class="cls-2" x="6808.5" y="4085.1" width="226.95" height="226.95"/><rect class="cls-2" x="6581.55" y="4085.1" width="226.95" height="226.95"/><rect class="cls-5" x="6808.5" y="3858.15" width="226.95" height="226.95"/><rect class="cls-5" x="6581.55" y="3858.15" width="226.95" height="226.95"/><rect class="cls-6" x="6581.55" y="3631.2" width="226.95" height="226.95"/><rect class="cls-5" x="6354.6" y="3631.2" width="226.95" height="226.95"/><rect class="cls-2" x="6354.6" y="3858.15" width="226.95" height="226.95"/><rect class="cls-6" x="8397.15" y="4085.1" width="226.95" height="226.95"/><rect class="cls-5" x="8170.2" y="3858.15" width="226.95" height="226.95"/><rect class="cls-9" x="8170.2" y="2950.35" width="226.95" height="226.95"/><rect class="cls-2" x="8397.15" y="2950.35" width="226.95" height="226.95"/><rect class="cls-9" x="8170.2" y="3177.3" width="226.95" height="226.95"/><rect class="cls-8" x="7716.3" y="3858.15" width="226.95" height="226.95"/><rect class="cls-8" x="7489.35" y="3631.2" width="226.95" height="226.95"/><rect class="cls-8" x="6808.5" y="3631.2" width="226.95" height="226.95"/><rect class="cls-10" x="7262.4" y="3631.2" width="226.95" height="226.95"/><rect class="cls-9" x="7035.45" y="3631.2" width="226.95" height="226.95"/><rect class="cls-8" x="7716.3" y="3631.2" width="226.95" height="226.95"/><rect class="cls-8" x="7489.35" y="3858.15" width="226.95" height="226.95"/><rect class="cls-9" x="8397.15" y="3404.25" width="226.95" height="226.95"/><rect class="cls-12" x="7489.35" y="2269.5" width="226.95" height="226.95"/><rect class="cls-12" x="7716.3" y="2269.5" width="226.95" height="226.95"/><rect class="cls-1" x="4992.9" y="2723.4" width="226.95" height="226.95"/><rect class="cls-1" x="4992.9" y="2496.45" width="226.95" height="226.95"/><rect class="cls-1" x="7035.45" y="5446.8" width="226.95" height="226.95"/><rect class="cls-1" x="7262.4" y="6127.65" width="226.95" height="226.95"/><rect class="cls-1" x="6354.6" y="6354.6" width="226.95" height="226.95"/><rect class="cls-5" x="5219.85" y="6581.55" width="226.95" height="226.95"/><rect class="cls-7" x="4085.1" y="4992.9" width="226.95" height="226.95"/><rect class="cls-6" x="4085.1" y="4765.95" width="226.95" height="226.95"/><rect class="cls-7" x="4085.1" y="4539" width="226.95" height="226.95"/><rect class="cls-6" x="4312.05" y="4539" width="226.95" height="226.95"/><rect class="cls-6" x="4312.05" y="4312.05" width="226.95" height="226.95"/><rect class="cls-6" x="4539" y="4312.05" width="226.95" height="226.95"/><rect class="cls-6" x="4539" y="4085.1" width="226.95" height="226.95"/><rect class="cls-6" x="4539" y="3858.15" width="226.95" height="226.95"/><rect class="cls-6" x="4765.95" y="3858.15" width="226.95" height="226.95"/><rect class="cls-6" x="4539" y="3631.2" width="226.95" height="226.95"/><rect class="cls-6" x="4312.05" y="3631.2" width="226.95" height="226.95"/><rect class="cls-2" x="3404.25" y="3858.15" width="226.95" height="226.95"/><rect class="cls-2" x="3631.2" y="4085.1" width="226.95" height="226.95"/><rect class="cls-2" x="3858.15" y="4312.05" width="226.95" height="226.95"/><rect class="cls-2" x="3858.15" y="4765.95" width="226.95" height="226.95"/><rect class="cls-2" x="4085.1" y="5673.75" width="226.95" height="226.95"/><rect class="cls-5" x="3631.2" y="3858.15" width="226.95" height="226.95"/><rect class="cls-2" x="3404.25" y="3631.2" width="226.95" height="226.95"/><rect class="cls-2" x="3404.25" y="3404.25" width="226.95" height="226.95"/><rect class="cls-2" x="2950.35" y="2950.35" width="226.95" height="226.95"/><rect class="cls-2" x="3177.3" y="2950.35" width="226.95" height="226.95"/><rect class="cls-2" x="2950.35" y="2723.4" width="226.95" height="226.95"/><rect class="cls-2" x="2950.35" y="2496.45" width="226.95" height="226.95"/><rect class="cls-5" x="3177.3" y="2723.4" width="226.95" height="226.95"/><rect class="cls-5" x="3177.3" y="2496.45" width="226.95" height="226.95"/><rect class="cls-5" x="3177.3" y="2269.5" width="226.95" height="226.95"/><rect class="cls-5" x="2950.35" y="2042.55" width="226.95" height="226.95"/><rect class="cls-5" x="2950.35" y="1815.6" width="226.95" height="226.95"/><rect class="cls-4" x="3177.3" y="1815.6" width="226.95" height="226.95"/><rect class="cls-4" x="3177.3" y="1588.65" width="226.95" height="226.95"/><rect class="cls-4" x="3404.25" y="1815.6" width="226.95" height="226.95"/><rect class="cls-4" x="3404.25" y="2042.55" width="226.95" height="226.95"/><rect class="cls-11" x="3631.2" y="2950.35" width="226.95" height="226.95"/><rect class="cls-11" x="3631.2" y="2496.45" width="226.95" height="226.95"/><rect class="cls-11" x="3631.2" y="2269.5" width="226.95" height="226.95"/><rect class="cls-11" x="3631.2" y="2042.55" width="226.95" height="226.95"/><rect class="cls-11" x="3858.15" y="2042.55" width="226.95" height="226.95"/><rect class="cls-11" x="4085.1" y="1815.6" width="226.95" height="226.95"/><rect class="cls-11" x="4085.1" y="2042.55" width="226.95" height="226.95"/><rect class="cls-11" x="3858.15" y="2269.5" width="226.95" height="226.95"/><rect class="cls-11" x="4085.1" y="2269.5" width="226.95" height="226.95"/><rect class="cls-11" x="4312.05" y="1815.6" width="226.95" height="226.95"/><rect class="cls-11" x="4312.05" y="2042.55" width="226.95" height="226.95"/><rect class="cls-11" x="4312.05" y="2269.5" width="226.95" height="226.95"/><rect class="cls-11" x="6581.55" y="907.8" width="226.95" height="226.95"/><rect class="cls-11" x="6581.55" y="1134.75" width="226.95" height="226.95"/><rect class="cls-11" x="3858.15" y="2496.45" width="226.95" height="226.95"/><rect class="cls-11" x="4085.1" y="2496.45" width="226.95" height="226.95"/><rect class="cls-4" x="4539" y="2723.4" width="226.95" height="226.95"/><rect class="cls-4" x="4539" y="2950.35" width="226.95" height="226.95"/><rect class="cls-6" x="4539" y="2269.5" width="226.95" height="226.95"/><rect class="cls-6" x="4539" y="2496.45" width="226.95" height="226.95"/><rect class="cls-4" x="4539" y="3177.3" width="226.95" height="226.95"/><rect class="cls-4" x="4539" y="3404.25" width="226.95" height="226.95"/><rect class="cls-7" x="4765.95" y="2723.4" width="226.95" height="226.95"/><rect class="cls-7" x="4765.95" y="2496.45" width="226.95" height="226.95"/><rect class="cls-13" x="4765.95" y="2269.5" width="226.95" height="226.95"/><rect class="cls-13" x="5219.85" y="1361.7" width="226.95" height="226.95"/><rect class="cls-13" x="5219.85" y="4085.1" width="226.95" height="226.95"/><rect class="cls-13" x="5219.85" y="1134.75" width="226.95" height="226.95"/><rect class="cls-3" x="5219.85" y="1815.6" width="226.95" height="226.95"/><rect class="cls-3" x="4992.9" y="2269.5" width="226.95" height="226.95"/><rect class="cls-2" x="4992.9" y="2042.55" width="226.95" height="226.95"/><rect class="cls-2" x="5219.85" y="2042.55" width="226.95" height="226.95"/><rect class="cls-2" x="5219.85" y="2269.5" width="226.95" height="226.95"/><rect class="cls-3" x="5219.85" y="1588.65" width="226.95" height="226.95"/><rect class="cls-3" x="5446.8" y="1361.7" width="226.95" height="226.95"/><rect class="cls-3" x="5446.8" y="1134.75" width="226.95" height="226.95"/><rect class="cls-3" x="4992.9" y="3177.3" width="226.95" height="226.95"/><rect class="cls-2" x="4992.9" y="3404.25" width="226.95" height="226.95"/><rect class="cls-3" x="4992.9" y="2950.35" width="226.95" height="226.95"/><rect class="cls-14" x="4765.95" y="1815.6" width="226.95" height="226.95"/><rect class="cls-14" x="4992.9" y="1588.65" width="226.95" height="226.95"/><rect class="cls-7" x="4765.95" y="2950.35" width="226.95" height="226.95"/><rect class="cls-7" x="4765.95" y="3177.3" width="226.95" height="226.95"/><rect class="cls-7" x="4765.95" y="3404.25" width="226.95" height="226.95"/><rect class="cls-11" x="4085.1" y="2950.35" width="226.95" height="226.95"/><rect class="cls-11" x="4312.05" y="2950.35" width="226.95" height="226.95"/><rect class="cls-11" x="4312.05" y="2723.4" width="226.95" height="226.95"/><rect class="cls-11" x="4085.1" y="3177.3" width="226.95" height="226.95"/><rect class="cls-6" x="4085.1" y="3404.25" width="226.95" height="226.95"/><rect class="cls-6" x="4312.05" y="3404.25" width="226.95" height="226.95"/><rect class="cls-6" x="4312.05" y="3177.3" width="226.95" height="226.95"/><rect class="cls-6" x="4085.1" y="3631.2" width="226.95" height="226.95"/><rect class="cls-4" x="4085.1" y="3858.15" width="226.95" height="226.95"/><rect class="cls-4" x="4312.05" y="3858.15" width="226.95" height="226.95"/><rect class="cls-4" x="4085.1" y="4312.05" width="226.95" height="226.95"/><rect class="cls-11" x="4085.1" y="4085.1" width="226.95" height="226.95"/><rect class="cls-11" x="4312.05" y="4085.1" width="226.95" height="226.95"/><rect class="cls-11" x="3858.15" y="3177.3" width="226.95" height="226.95"/><rect class="cls-11" x="3858.15" y="3404.25" width="226.95" height="226.95"/><rect class="cls-11" x="3858.15" y="3631.2" width="226.95" height="226.95"/><rect class="cls-6" x="3858.15" y="3858.15" width="226.95" height="226.95"/><rect class="cls-5" x="3858.15" y="4539" width="226.95" height="226.95"/><rect class="cls-5" x="4085.1" y="5446.8" width="226.95" height="226.95"/><rect class="cls-5" x="4312.05" y="5673.75" width="226.95" height="226.95"/><rect class="cls-11" x="3631.2" y="1815.6" width="226.95" height="226.95"/><rect class="cls-11" x="3631.2" y="3177.3" width="226.95" height="226.95"/><rect class="cls-6" x="3404.25" y="2269.5" width="226.95" height="226.95"/><rect class="cls-6" x="3404.25" y="2950.35" width="226.95" height="226.95"/><rect class="cls-4" x="3631.2" y="2723.4" width="226.95" height="226.95"/><rect class="cls-4" x="4085.1" y="2723.4" width="226.95" height="226.95"/><rect class="cls-4" x="4312.05" y="2496.45" width="226.95" height="226.95"/><rect class="cls-4" x="3858.15" y="2950.35" width="226.95" height="226.95"/><rect class="cls-4" x="3631.2" y="3404.25" width="226.95" height="226.95"/><rect class="cls-4" x="4992.9" y="6808.5" width="226.95" height="226.95"/><rect class="cls-4" x="4992.9" y="6581.55" width="226.95" height="226.95"/><rect class="cls-4" x="4765.95" y="6581.55" width="226.95" height="226.95"/><rect class="cls-4" x="4992.9" y="6354.6" width="226.95" height="226.95"/><rect class="cls-4" x="4765.95" y="6354.6" width="226.95" height="226.95"/><rect class="cls-4" x="4992.9" y="6127.65" width="226.95" height="226.95"/><rect class="cls-4" x="5219.85" y="6127.65" width="226.95" height="226.95"/><rect class="cls-6" x="5446.8" y="6354.6" width="226.95" height="226.95"/><rect class="cls-6" x="5219.85" y="6354.6" width="226.95" height="226.95"/><rect class="cls-6" x="5446.8" y="6127.65" width="226.95" height="226.95"/><rect class="cls-4" x="4765.95" y="6127.65" width="226.95" height="226.95"/><rect class="cls-4" x="4765.95" y="5900.7" width="226.95" height="226.95"/><rect class="cls-4" x="4539" y="5900.7" width="226.95" height="226.95"/><rect class="cls-4" x="4765.95" y="5673.75" width="226.95" height="226.95"/><rect class="cls-4" x="4992.9" y="5446.8" width="226.95" height="226.95"/><rect class="cls-5" x="5219.85" y="5446.8" width="226.95" height="226.95"/><rect class="cls-2" x="5446.8" y="5446.8" width="226.95" height="226.95"/><rect class="cls-4" x="4312.05" y="5219.85" width="226.95" height="226.95"/><rect class="cls-6" x="5219.85" y="5673.75" width="226.95" height="226.95"/><rect class="cls-4" x="4539" y="5673.75" width="226.95" height="226.95"/><rect class="cls-4" x="4539" y="5446.8" width="226.95" height="226.95"/><rect class="cls-4" x="4539" y="5219.85" width="226.95" height="226.95"/><rect class="cls-4" x="4539" y="4992.9" width="226.95" height="226.95"/><rect class="cls-6" x="4765.95" y="4992.9" width="226.95" height="226.95"/><rect class="cls-6" x="4765.95" y="4765.95" width="226.95" height="226.95"/><rect class="cls-4" x="4765.95" y="4539" width="226.95" height="226.95"/><rect class="cls-5" x="4992.9" y="4539" width="226.95" height="226.95"/><rect class="cls-11" x="4539" y="4539" width="226.95" height="226.95"/><rect class="cls-2" x="5219.85" y="5219.85" width="226.95" height="226.95"/><rect class="cls-3" x="5446.8" y="5219.85" width="226.95" height="226.95"/><rect class="cls-2" x="5219.85" y="4992.9" width="226.95" height="226.95"/><rect class="cls-5" x="4992.9" y="4992.9" width="226.95" height="226.95"/><rect class="cls-11" x="5219.85" y="5900.7" width="226.95" height="226.95"/><rect class="cls-11" x="4992.9" y="5900.7" width="226.95" height="226.95"/><rect class="cls-11" x="4992.9" y="5673.75" width="226.95" height="226.95"/><rect class="cls-11" x="4765.95" y="5446.8" width="226.95" height="226.95"/><rect class="cls-11" x="4765.95" y="5219.85" width="226.95" height="226.95"/><rect class="cls-11" x="4312.05" y="5446.8" width="226.95" height="226.95"/><rect class="cls-11" x="4312.05" y="4992.9" width="226.95" height="226.95"/><rect class="cls-4" x="4539" y="4765.95" width="226.95" height="226.95"/><rect class="cls-4" x="4312.05" y="4765.95" width="226.95" height="226.95"/><rect class="cls-7" x="3631.2" y="3631.2" width="226.95" height="226.95"/><rect class="cls-7" x="3858.15" y="4085.1" width="226.95" height="226.95"/><rect class="cls-4" x="3404.25" y="1588.65" width="226.95" height="226.95"/><rect class="cls-3" x="2723.4" y="2042.55" width="226.95" height="226.95"/><rect class="cls-3" x="2496.45" y="1815.6" width="226.95" height="226.95"/><rect class="cls-3" x="2723.4" y="1815.6" width="226.95" height="226.95"/><rect class="cls-3" x="2950.35" y="1361.7" width="226.95" height="226.95"/><rect class="cls-2" x="2950.35" y="1588.65" width="226.95" height="226.95"/><rect class="cls-3" x="2269.5" y="2269.5" width="226.95" height="226.95"/><rect class="cls-3" x="2269.5" y="2042.55" width="226.95" height="226.95"/><rect class="cls-3" x="2269.5" y="4085.1" width="226.95" height="226.95"/><rect class="cls-3" x="1361.7" y="3631.2" width="226.95" height="226.95"/><rect class="cls-3" x="1361.7" y="3858.15" width="226.95" height="226.95"/><rect class="cls-3" x="907.8" y="5219.85" width="226.95" height="226.95"/><rect class="cls-2" x="1134.75" y="5219.85" width="226.95" height="226.95"/><rect class="cls-5" x="907.8" y="4992.9" width="226.95" height="226.95"/><rect class="cls-5" x="680.85" y="4539" width="226.95" height="226.95"/><rect class="cls-2" x="680.85" y="4992.9" width="226.95" height="226.95"/><rect class="cls-2" x="453.9" y="4765.95" width="226.95" height="226.95"/><rect class="cls-2" x="1361.7" y="5219.85" width="226.95" height="226.95"/><rect class="cls-3" x="1361.7" y="6127.65" width="226.95" height="226.95"/><rect class="cls-3" x="1588.65" y="6127.65" width="226.95" height="226.95"/><rect class="cls-3" x="1815.6" y="6127.65" width="226.95" height="226.95"/><rect class="cls-3" x="2042.55" y="6127.65" width="226.95" height="226.95"/><rect class="cls-3" x="2042.55" y="5900.7" width="226.95" height="226.95"/><rect class="cls-3" x="2269.5" y="5673.75" width="226.95" height="226.95"/><rect class="cls-1" x="1815.6" y="6808.5" width="226.95" height="226.95"/><rect class="cls-1" x="1815.6" y="6581.55" width="226.95" height="226.95"/><rect class="cls-1" x="2042.55" y="6808.5" width="226.95" height="226.95"/><rect class="cls-1" x="2269.5" y="6808.5" width="226.95" height="226.95"/><rect class="cls-1" x="2496.45" y="6808.5" width="226.95" height="226.95"/><rect class="cls-1" x="2269.5" y="6127.65" width="226.95" height="226.95"/><rect class="cls-1" x="2496.45" y="6127.65" width="226.95" height="226.95"/><rect class="cls-1" x="2723.4" y="6127.65" width="226.95" height="226.95"/><rect class="cls-1" x="2950.35" y="6127.65" width="226.95" height="226.95"/><rect class="cls-1" x="2269.5" y="5900.7" width="226.95" height="226.95"/><rect class="cls-1" x="2496.45" y="5900.7" width="226.95" height="226.95"/><rect class="cls-1" x="2723.4" y="5900.7" width="226.95" height="226.95"/><rect class="cls-1" x="2950.35" y="5900.7" width="226.95" height="226.95"/><rect class="cls-1" x="3177.3" y="5900.7" width="226.95" height="226.95"/><rect class="cls-1" x="2496.45" y="5673.75" width="226.95" height="226.95"/><rect class="cls-1" x="2723.4" y="5673.75" width="226.95" height="226.95"/><rect class="cls-1" x="2950.35" y="5673.75" width="226.95" height="226.95"/><rect class="cls-1" x="3177.3" y="5673.75" width="226.95" height="226.95"/><rect class="cls-1" x="2496.45" y="5446.8" width="226.95" height="226.95"/><rect class="cls-1" x="2723.4" y="5446.8" width="226.95" height="226.95"/><rect class="cls-1" x="2950.35" y="5446.8" width="226.95" height="226.95"/><rect class="cls-1" x="3177.3" y="5446.8" width="226.95" height="226.95"/><rect class="cls-1" x="3404.25" y="5446.8" width="226.95" height="226.95"/><rect class="cls-1" x="2496.45" y="5219.85" width="226.95" height="226.95"/><rect class="cls-1" x="2723.4" y="5219.85" width="226.95" height="226.95"/><rect class="cls-1" x="2950.35" y="5219.85" width="226.95" height="226.95"/><rect class="cls-1" x="3177.3" y="5219.85" width="226.95" height="226.95"/><rect class="cls-1" x="3404.25" y="5219.85" width="226.95" height="226.95"/><rect class="cls-1" x="2042.55" y="6581.55" width="226.95" height="226.95"/><rect class="cls-1" x="2269.5" y="6581.55" width="226.95" height="226.95"/><rect class="cls-1" x="2496.45" y="6581.55" width="226.95" height="226.95"/><rect class="cls-1" x="2723.4" y="6581.55" width="226.95" height="226.95"/><rect class="cls-1" x="2042.55" y="6354.6" width="226.95" height="226.95"/><rect class="cls-1" x="2269.5" y="6354.6" width="226.95" height="226.95"/><rect class="cls-1" x="2496.45" y="6354.6" width="226.95" height="226.95"/><rect class="cls-1" x="2723.4" y="6354.6" width="226.95" height="226.95"/><rect class="cls-1" x="2950.35" y="6354.6" width="226.95" height="226.95"/><rect class="cls-1" x="3858.15" y="5900.7" width="226.95" height="226.95"/><rect class="cls-1" x="3858.15" y="5673.75" width="226.95" height="226.95"/><rect class="cls-1" x="3858.15" y="5446.8" width="226.95" height="226.95"/><rect class="cls-1" x="3631.2" y="5219.85" width="226.95" height="226.95"/><rect class="cls-1" x="2496.45" y="4992.9" width="226.95" height="226.95"/><rect class="cls-1" x="2723.4" y="4992.9" width="226.95" height="226.95"/><rect class="cls-1" x="2950.35" y="4992.9" width="226.95" height="226.95"/><rect class="cls-1" x="3177.3" y="4992.9" width="226.95" height="226.95"/><rect class="cls-1" x="3404.25" y="4992.9" width="226.95" height="226.95"/><rect class="cls-1" x="3631.2" y="4992.9" width="226.95" height="226.95"/><rect class="cls-1" x="2496.45" y="4765.95" width="226.95" height="226.95"/><rect class="cls-1" x="2269.5" y="4765.95" width="226.95" height="226.95"/><rect class="cls-1" x="2723.4" y="4765.95" width="226.95" height="226.95"/><rect class="cls-1" x="2950.35" y="4765.95" width="226.95" height="226.95"/><rect class="cls-1" x="3177.3" y="4765.95" width="226.95" height="226.95"/><rect class="cls-1" x="3404.25" y="4765.95" width="226.95" height="226.95"/><rect class="cls-1" x="3631.2" y="4765.95" width="226.95" height="226.95"/><rect class="cls-1" x="2269.5" y="4539" width="226.95" height="226.95"/><rect class="cls-1" x="2042.55" y="4539" width="226.95" height="226.95"/><rect class="cls-1" x="2496.45" y="4539" width="226.95" height="226.95"/><rect class="cls-1" x="2723.4" y="4539" width="226.95" height="226.95"/><rect class="cls-1" x="2950.35" y="4539" width="226.95" height="226.95"/><rect class="cls-1" x="3177.3" y="4539" width="226.95" height="226.95"/><rect class="cls-1" x="3404.25" y="4539" width="226.95" height="226.95"/><rect class="cls-1" x="2269.5" y="4312.05" width="226.95" height="226.95"/><rect class="cls-1" x="2042.55" y="4312.05" width="226.95" height="226.95"/><rect class="cls-1" x="1815.6" y="4312.05" width="226.95" height="226.95"/><rect class="cls-1" x="2042.55" y="4085.1" width="226.95" height="226.95"/><rect class="cls-1" x="1815.6" y="4085.1" width="226.95" height="226.95"/><rect class="cls-1" x="1588.65" y="4085.1" width="226.95" height="226.95"/><rect class="cls-1" x="1588.65" y="3858.15" width="226.95" height="226.95"/><rect class="cls-1" x="1588.65" y="3631.2" width="226.95" height="226.95"/><rect class="cls-1" x="1361.7" y="4085.1" width="226.95" height="226.95"/><rect class="cls-1" x="2496.45" y="4312.05" width="226.95" height="226.95"/><rect class="cls-1" x="2723.4" y="4312.05" width="226.95" height="226.95"/><rect class="cls-1" x="2950.35" y="4312.05" width="226.95" height="226.95"/><rect class="cls-1" x="1815.6" y="3631.2" width="226.95" height="226.95"/><rect class="cls-1" x="2042.55" y="3631.2" width="226.95" height="226.95"/><rect class="cls-1" x="2269.5" y="3631.2" width="226.95" height="226.95"/><rect class="cls-1" x="3177.3" y="4312.05" width="226.95" height="226.95"/><rect class="cls-1" x="3404.25" y="4312.05" width="226.95" height="226.95"/><rect class="cls-1" x="2496.45" y="4085.1" width="226.95" height="226.95"/><rect class="cls-1" x="2723.4" y="4085.1" width="226.95" height="226.95"/><rect class="cls-1" x="2950.35" y="4085.1" width="226.95" height="226.95"/><rect class="cls-1" x="2496.45" y="3858.15" width="226.95" height="226.95"/><rect class="cls-1" x="2723.4" y="3858.15" width="226.95" height="226.95"/><rect class="cls-1" x="2496.45" y="3631.2" width="226.95" height="226.95"/><rect class="cls-1" x="2723.4" y="3631.2" width="226.95" height="226.95"/><rect class="cls-1" x="2496.45" y="3404.25" width="226.95" height="226.95"/><rect class="cls-1" x="2723.4" y="3404.25" width="226.95" height="226.95"/><rect class="cls-1" x="2950.35" y="3858.15" width="226.95" height="226.95"/><rect class="cls-1" x="2950.35" y="3631.2" width="226.95" height="226.95"/><rect class="cls-1" x="2950.35" y="3404.25" width="226.95" height="226.95"/><rect class="cls-1" x="2269.5" y="3177.3" width="226.95" height="226.95"/><rect class="cls-1" x="2269.5" y="2950.35" width="226.95" height="226.95"/><rect class="cls-1" x="2269.5" y="2723.4" width="226.95" height="226.95"/><rect class="cls-1" x="2269.5" y="2496.45" width="226.95" height="226.95"/><rect class="cls-1" x="2496.45" y="3177.3" width="226.95" height="226.95"/><rect class="cls-1" x="2496.45" y="2950.35" width="226.95" height="226.95"/><rect class="cls-1" x="2496.45" y="2723.4" width="226.95" height="226.95"/><rect class="cls-1" x="2496.45" y="2496.45" width="226.95" height="226.95"/><rect class="cls-1" x="2496.45" y="2269.5" width="226.95" height="226.95"/><rect class="cls-1" x="2723.4" y="2269.5" width="226.95" height="226.95"/><rect class="cls-1" x="2496.45" y="2042.55" width="226.95" height="226.95"/><rect class="cls-1" x="2723.4" y="3177.3" width="226.95" height="226.95"/><rect class="cls-1" x="2723.4" y="2950.35" width="226.95" height="226.95"/><rect class="cls-1" x="2723.4" y="2723.4" width="226.95" height="226.95"/><rect class="cls-1" x="2723.4" y="2496.45" width="226.95" height="226.95"/><rect class="cls-1" x="3177.3" y="4085.1" width="226.95" height="226.95"/><rect class="cls-1" x="3404.25" y="4085.1" width="226.95" height="226.95"/><rect class="cls-1" x="3177.3" y="3858.15" width="226.95" height="226.95"/><rect class="cls-2" x="907.8" y="4312.05" width="226.95" height="226.95"/><rect class="cls-2" x="1134.75" y="4312.05" width="226.95" height="226.95"/><rect class="cls-2" x="1361.7" y="4312.05" width="226.95" height="226.95"/><rect class="cls-2" x="1588.65" y="4312.05" width="226.95" height="226.95"/><rect class="cls-1" x="3858.15" y="6127.65" width="226.95" height="226.95"/><rect class="cls-2" x="4539" y="6581.55" width="226.95" height="226.95"/><rect class="cls-5" x="4539" y="6354.6" width="226.95" height="226.95"/><rect class="cls-2" x="4312.05" y="6354.6" width="226.95" height="226.95"/><rect class="cls-2" x="4312.05" y="6127.65" width="226.95" height="226.95"/><rect class="cls-2" x="4312.05" y="6581.55" width="226.95" height="226.95"/><rect class="cls-6" x="5673.75" y="7035.45" width="226.95" height="226.95"/><rect class="cls-6" x="5446.8" y="7035.45" width="226.95" height="226.95"/><rect class="cls-3" x="4539" y="6808.5" width="226.95" height="226.95"/><rect class="cls-3" x="4765.95" y="7035.45" width="226.95" height="226.95"/><rect class="cls-2" x="5446.8" y="6808.5" width="226.95" height="226.95"/><rect class="cls-6" x="4992.9" y="7035.45" width="226.95" height="226.95"/><rect class="cls-5" x="4539" y="7262.4" width="226.95" height="226.95"/><rect class="cls-5" x="5219.85" y="7262.4" width="226.95" height="226.95"/><rect class="cls-2" x="4765.95" y="7262.4" width="226.95" height="226.95"/><rect class="cls-2" x="4992.9" y="7262.4" width="226.95" height="226.95"/><rect class="cls-3" x="6354.6" y="7489.35" width="226.95" height="226.95"/><rect class="cls-4" x="6581.55" y="7489.35" width="226.95" height="226.95"/><rect class="cls-6" x="6581.55" y="7035.45" width="226.95" height="226.95"/><rect class="cls-3" x="4312.05" y="6808.5" width="226.95" height="226.95"/><rect class="cls-1" x="4539" y="7035.45" width="226.95" height="226.95"/><rect class="cls-1" x="4312.05" y="7035.45" width="226.95" height="226.95"/><rect class="cls-1" x="4312.05" y="8170.2" width="226.95" height="226.95"/><rect class="cls-1" x="4085.1" y="6581.55" width="226.95" height="226.95"/><rect class="cls-1" x="4085.1" y="6354.6" width="226.95" height="226.95"/><rect class="cls-1" x="4085.1" y="6808.5" width="226.95" height="226.95"/><rect class="cls-6" x="1815.6" y="8397.15" width="226.95" height="226.95"/><rect class="cls-6" x="2723.4" y="8397.15" width="226.95" height="226.95"/><rect class="cls-6" x="2950.35" y="7943.25" width="226.95" height="226.95"/><rect class="cls-6" x="2496.45" y="8397.15" width="226.95" height="226.95"/><rect class="cls-8" x="680.85" y="7716.3" width="226.95" height="226.95"/><rect class="cls-8" x="907.8" y="7716.3" width="226.95" height="226.95"/><rect class="cls-8" x="2723.4" y="7716.3" width="226.95" height="226.95"/><rect class="cls-8" x="4539" y="7489.35" width="226.95" height="226.95"/><rect class="cls-8" x="4992.9" y="7489.35" width="226.95" height="226.95"/><rect class="cls-8" x="4539" y="7943.25" width="226.95" height="226.95"/><rect class="cls-8" x="3858.15" y="8170.2" width="226.95" height="226.95"/><rect class="cls-8" x="4085.1" y="8624.1" width="226.95" height="226.95"/><rect class="cls-8" x="4312.05" y="8851.05" width="226.95" height="226.95"/><rect class="cls-8" x="4539" y="8851.05" width="226.95" height="226.95"/><rect class="cls-8" x="4765.95" y="8851.05" width="226.95" height="226.95"/><rect class="cls-8" x="5219.85" y="8851.05" width="226.95" height="226.95"/><rect class="cls-5" x="3858.15" y="8397.15" width="226.95" height="226.95"/><rect class="cls-8" x="1134.75" y="7943.25" width="226.95" height="226.95"/><rect class="cls-8" x="1361.7" y="8170.2" width="226.95" height="226.95"/><rect class="cls-8" x="680.85" y="7489.35" width="226.95" height="226.95"/><rect class="cls-8" x="907.8" y="7489.35" width="226.95" height="226.95"/><rect class="cls-8" x="2042.55" y="8397.15" width="226.95" height="226.95"/><rect class="cls-8" x="2269.5" y="8397.15" width="226.95" height="226.95"/><rect class="cls-9" x="1134.75" y="7716.3" width="226.95" height="226.95"/><rect class="cls-9" x="1134.75" y="7489.35" width="226.95" height="226.95"/><rect class="cls-8" x="1815.6" y="7262.4" width="226.95" height="226.95"/><rect class="cls-9" x="2042.55" y="7262.4" width="226.95" height="226.95"/><rect class="cls-9" x="1471.7" y="7603.35" width="226.95" height="226.95" transform="translate(9192 6017.65) rotate(90)"/><rect class="cls-9" x="2152.55" y="7603.35" width="226.95" height="226.95" transform="translate(9872.85 5336.8) rotate(90)"/><rect class="cls-9" x="2152.55" y="7830.3" width="226.95" height="226.95" transform="translate(4422.05 15773.55) rotate(180)"/><rect class="cls-9" x="2379.5" y="7603.35" width="226.95" height="226.95" transform="translate(10099.8 5109.85) rotate(90)"/><rect class="cls-9" x="2379.5" y="7830.3" width="226.95" height="226.95" transform="translate(4875.95 15773.55) rotate(180)"/><rect class="cls-9" x="2606.45" y="7830.3" width="226.95" height="226.95" transform="translate(5329.85 15773.55) rotate(180)"/><rect class="cls-9" x="4195.1" y="8511.15" width="226.95" height="226.95" transform="translate(8507.15 17135.25) rotate(180)"/><rect class="cls-9" x="4649" y="8738.1" width="226.95" height="226.95" transform="translate(9414.95 17589.15) rotate(180)"/><rect class="cls-9" x="4875.95" y="8738.1" width="226.95" height="226.95" transform="translate(9868.85 17589.15) rotate(180)"/><rect class="cls-9" x="5102.9" y="8511.15" width="226.95" height="226.95" transform="translate(10322.75 17135.25) rotate(180)"/><rect class="cls-9" x="5102.9" y="8965.05" width="226.95" height="226.95" transform="translate(10322.75 18043.05) rotate(180)"/><rect class="cls-10" x="5102.9" y="8738.1" width="226.95" height="226.95" transform="translate(10322.75 17589.15) rotate(180)"/><rect class="cls-10" x="5329.85" y="8738.1" width="226.95" height="226.95" transform="translate(10776.65 17589.15) rotate(180)"/><rect class="cls-10" x="5102.9" y="8284.2" width="226.95" height="226.95" transform="translate(10322.75 16681.35) rotate(180)"/><rect class="cls-10" x="4875.95" y="8057.25" width="226.95" height="226.95" transform="translate(9868.85 16227.45) rotate(180)"/><rect class="cls-10" x="4875.95" y="7830.3" width="226.95" height="226.95" transform="translate(9868.85 15773.55) rotate(180)"/><rect class="cls-10" x="4875.95" y="7603.35" width="226.95" height="226.95" transform="translate(9868.85 15319.65) rotate(180)"/><rect class="cls-10" x="5329.85" y="7603.35" width="226.95" height="226.95" transform="translate(10776.65 15319.65) rotate(180)"/><rect class="cls-10" x="5556.8" y="7376.4" width="226.95" height="226.95" transform="translate(11230.55 14865.75) rotate(180)"/><rect class="cls-10" x="5329.85" y="8284.2" width="226.95" height="226.95" transform="translate(10776.65 16681.35) rotate(180)"/><rect class="cls-10" x="5329.85" y="8511.15" width="226.95" height="226.95" transform="translate(10776.65 17135.25) rotate(180)"/><rect class="cls-12" x="5102.9" y="8057.25" width="226.95" height="226.95" transform="translate(10322.75 16227.45) rotate(180)"/><rect class="cls-12" x="5102.9" y="7830.3" width="226.95" height="226.95" transform="translate(10322.75 15773.55) rotate(180)"/><rect class="cls-12" x="5329.85" y="7830.3" width="226.95" height="226.95" transform="translate(10776.65 15773.55) rotate(180)"/><rect class="cls-12" x="5556.8" y="7603.35" width="226.95" height="226.95" transform="translate(11230.55 15319.65) rotate(180)"/><rect class="cls-12" x="5556.8" y="8738.1" width="226.95" height="226.95" transform="translate(11230.55 17589.15) rotate(180)"/><rect class="cls-12" x="5329.85" y="8057.25" width="226.95" height="226.95" transform="translate(10776.65 16227.45) rotate(180)"/><rect class="cls-10" x="7145.45" y="7830.3" width="226.95" height="226.95" transform="translate(14407.85 15773.55) rotate(180)"/><rect class="cls-10" x="5556.8" y="8284.2" width="226.95" height="226.95" transform="translate(11230.55 16681.35) rotate(180)"/><rect class="cls-8" x="5783.75" y="8511.15" width="226.95" height="226.95" transform="translate(11684.45 17135.25) rotate(180)"/><rect class="cls-8" x="5783.75" y="8738.1" width="226.95" height="226.95" transform="translate(11684.45 17589.15) rotate(180)"/><rect class="cls-8" x="6010.7" y="8511.15" width="226.95" height="226.95" transform="translate(12138.35 17135.25) rotate(180)"/><rect class="cls-8" x="6237.65" y="7830.3" width="226.95" height="226.95" transform="translate(12592.25 15773.55) rotate(180)"/><rect class="cls-8" x="6010.7" y="7830.3" width="226.95" height="226.95" transform="translate(12138.35 15773.55) rotate(180)"/><rect class="cls-8" x="6691.55" y="7830.3" width="226.95" height="226.95" transform="translate(13500.05 15773.55) rotate(180)"/><rect class="cls-8" x="6918.5" y="7830.3" width="226.95" height="226.95" transform="translate(13953.95 15773.55) rotate(180)"/><rect class="cls-8" x="6918.5" y="7603.35" width="226.95" height="226.95" transform="translate(13953.95 15319.65) rotate(180)"/><rect class="cls-8" x="6691.55" y="7376.4" width="226.95" height="226.95" transform="translate(13500.05 14865.75) rotate(180)"/><rect class="cls-8" x="7372.4" y="7603.35" width="226.95" height="226.95" transform="translate(14861.75 15319.65) rotate(180)"/><rect class="cls-8" x="7372.4" y="7376.4" width="226.95" height="226.95" transform="translate(14861.75 14865.75) rotate(180)"/><rect class="cls-8" x="6464.6" y="7830.3" width="226.95" height="226.95" transform="translate(13046.15 15773.55) rotate(180)"/><rect class="cls-6" x="6691.55" y="8057.25" width="226.95" height="226.95" transform="translate(13500.05 16227.45) rotate(180)"/><rect class="cls-6" x="6464.6" y="8057.25" width="226.95" height="226.95" transform="translate(13046.15 16227.45) rotate(180)"/><rect class="cls-4" x="7145.45" y="8057.25" width="226.95" height="226.95" transform="translate(14407.85 16227.45) rotate(180)"/><rect class="cls-4" x="7372.4" y="7830.3" width="226.95" height="226.95" transform="translate(14861.75 15773.55) rotate(180)"/><rect class="cls-5" x="7372.4" y="7149.45" width="226.95" height="226.95" transform="translate(14861.75 14411.85) rotate(180)"/><rect class="cls-4" x="6918.5" y="8057.25" width="226.95" height="226.95" transform="translate(13953.95 16227.45) rotate(180)"/><rect class="cls-8" x="6010.7" y="8057.25" width="226.95" height="226.95" transform="translate(12138.35 16227.45) rotate(180)"/><rect class="cls-10" x="5556.8" y="8511.15" width="226.95" height="226.95" transform="translate(11230.55 17135.25) rotate(180)"/><rect class="cls-10" x="5556.8" y="7830.3" width="226.95" height="226.95" transform="translate(11230.55 15773.55) rotate(180)"/><rect class="cls-9" x="7145.45" y="7603.35" width="226.95" height="226.95" transform="translate(14407.85 15319.65) rotate(180)"/><rect class="cls-9" x="7145.45" y="7376.4" width="226.95" height="226.95" transform="translate(14407.85 14865.75) rotate(180)"/><rect class="cls-9" x="6918.5" y="7376.4" width="226.95" height="226.95" transform="translate(13953.95 14865.75) rotate(180)"/><rect class="cls-9" x="7145.45" y="7149.45" width="226.95" height="226.95" transform="translate(14407.85 14411.85) rotate(180)"/><rect class="cls-9" x="6918.5" y="7149.45" width="226.95" height="226.95" transform="translate(13953.95 14411.85) rotate(180)"/><rect class="cls-9" x="7145.45" y="6922.5" width="226.95" height="226.95" transform="translate(14407.85 13957.95) rotate(180)"/><rect class="cls-9" x="7145.45" y="6468.6" width="226.95" height="226.95" transform="translate(14407.85 13050.15) rotate(180)"/><rect class="cls-3" x="7372.4" y="6468.6" width="226.95" height="226.95" transform="translate(14861.75 13050.15) rotate(180)"/><rect class="cls-2" x="6691.55" y="6468.6" width="226.95" height="226.95" transform="translate(13500.05 13050.15) rotate(180)"/><rect class="cls-6" x="6464.6" y="6695.55" width="226.95" height="226.95" transform="translate(13046.15 13504.05) rotate(180)"/><rect class="cls-1" x="6237.65" y="6695.55" width="226.95" height="226.95" transform="translate(12592.25 13504.05) rotate(180)"/><rect x="6010.7" y="6695.55" width="226.95" height="226.95" transform="translate(12138.35 13504.05) rotate(180)"/><rect class="cls-9" x="6918.5" y="6922.5" width="226.95" height="226.95" transform="translate(13953.95 13957.95) rotate(180)"/><rect class="cls-9" x="6010.7" y="6922.5" width="226.95" height="226.95" transform="translate(12138.35 13957.95) rotate(180)"/><rect class="cls-10" x="5556.8" y="8057.25" width="226.95" height="226.95" transform="translate(11230.55 16227.45) rotate(180)"/><rect class="cls-9" x="5783.75" y="7376.4" width="226.95" height="226.95" transform="translate(11684.45 14865.75) rotate(180)"/><rect class="cls-9" x="5783.75" y="7603.35" width="226.95" height="226.95" transform="translate(11684.45 15319.65) rotate(180)"/><rect class="cls-5" x="6010.7" y="7376.4" width="226.95" height="226.95" transform="translate(12138.35 14865.75) rotate(180)"/><rect class="cls-4" x="6237.65" y="7149.45" width="226.95" height="226.95" transform="translate(12592.25 14411.85) rotate(180)"/><rect class="cls-5" x="6010.7" y="7603.35" width="226.95" height="226.95" transform="translate(12138.35 15319.65) rotate(180)"/><rect class="cls-9" x="5783.75" y="8284.2" width="226.95" height="226.95" transform="translate(11684.45 16681.35) rotate(180)"/><rect class="cls-9" x="5783.75" y="7830.3" width="226.95" height="226.95" transform="translate(11684.45 15773.55) rotate(180)"/><rect class="cls-9" x="5783.75" y="8057.25" width="226.95" height="226.95" transform="translate(11684.45 16227.45) rotate(180)"/><rect class="cls-9" x="4649" y="7830.3" width="226.95" height="226.95" transform="translate(9414.95 15773.55) rotate(180)"/><rect class="cls-8" x="5219.85" y="7035.45" width="226.95" height="226.95"/><rect class="cls-8" x="5900.7" y="7035.45" width="226.95" height="226.95"/><rect class="cls-8" x="5329.85" y="6922.5" width="226.95" height="226.95" transform="translate(10776.65 13957.95) rotate(180)"/><rect class="cls-8" x="4765.95" y="8397.15" width="226.95" height="226.95"/><rect class="cls-8" x="4875.95" y="8284.2" width="226.95" height="226.95" transform="translate(9868.85 16681.35) rotate(180)"/><rect class="cls-9" x="2379.5" y="8057.25" width="226.95" height="226.95" transform="translate(10553.7 5563.75) rotate(90)"/><rect class="cls-9" x="2379.5" y="8284.2" width="226.95" height="226.95" transform="translate(4875.95 16681.35) rotate(180)"/><rect class="cls-9" x="1698.65" y="7603.35" width="226.95" height="226.95" transform="translate(9418.95 5790.7) rotate(90)"/><rect class="cls-9" x="1925.6" y="7603.35" width="226.95" height="226.95" transform="translate(9645.9 5563.75) rotate(90)"/><rect class="cls-9" x="1698.65" y="8057.25" width="226.95" height="226.95" transform="translate(9872.85 6244.6) rotate(90)"/><rect class="cls-9" x="1925.6" y="8284.2" width="226.95" height="226.95" transform="translate(10326.75 6244.6) rotate(90)"/><rect class="cls-10" x="1471.7" y="7830.3" width="226.95" height="226.95" transform="translate(9418.95 6244.6) rotate(90)"/><rect class="cls-10" x="1471.7" y="8057.25" width="226.95" height="226.95" transform="translate(9645.9 6471.55) rotate(90)"/><rect class="cls-10" x="1698.65" y="7830.3" width="226.95" height="226.95" transform="translate(9645.9 6017.65) rotate(90)"/><rect class="cls-10" x="1925.6" y="7830.3" width="226.95" height="226.95" transform="translate(3968.15 15773.55) rotate(180)"/><rect class="cls-10" x="1925.6" y="8057.25" width="226.95" height="226.95" transform="translate(3968.15 16227.45) rotate(180)"/><rect class="cls-10" x="2606.45" y="8284.2" width="226.95" height="226.95" transform="translate(11007.6 5563.75) rotate(90)"/><rect class="cls-10" x="2833.4" y="8057.25" width="226.95" height="226.95" transform="translate(5783.75 16227.45) rotate(180)"/><rect class="cls-10" x="2833.4" y="8284.2" width="226.95" height="226.95" transform="translate(5783.75 16681.35) rotate(180)"/><rect class="cls-10" x="2152.55" y="8057.25" width="226.95" height="226.95" transform="translate(4422.05 16227.45) rotate(180)"/><rect class="cls-12" x="2152.55" y="8284.2" width="226.95" height="226.95" transform="translate(4422.05 16681.35) rotate(180)"/><rect class="cls-10" x="4422.05" y="8738.1" width="226.95" height="226.95" transform="translate(8961.05 17589.15) rotate(180)"/><rect class="cls-12" x="2606.45" y="8057.25" width="226.95" height="226.95" transform="translate(5329.85 16227.45) rotate(180)"/><rect class="cls-5" x="907.8" y="7943.25" width="226.95" height="226.95"/><rect class="cls-1" x="907.8" y="7262.4" width="226.95" height="226.95"/><rect class="cls-1" x="1361.7" y="7262.4" width="226.95" height="226.95"/><rect class="cls-1" x="907.8" y="7035.45" width="226.95" height="226.95"/><rect class="cls-1" x="907.8" y="6808.5" width="226.95" height="226.95"/><rect class="cls-1" x="907.8" y="6127.65" width="226.95" height="226.95"/><rect class="cls-1" x="907.8" y="5900.7" width="226.95" height="226.95"/><rect class="cls-1" x="907.8" y="5673.75" width="226.95" height="226.95"/><rect class="cls-1" x="680.85" y="5900.7" width="226.95" height="226.95"/><rect class="cls-1" x="680.85" y="5673.75" width="226.95" height="226.95"/><rect class="cls-1" x="453.9" y="5673.75" width="226.95" height="226.95"/><rect class="cls-1" x="453.9" y="5446.8" width="226.95" height="226.95"/><rect class="cls-1" x="226.95" y="5673.75" width="226.95" height="226.95"/><rect class="cls-1" x="226.95" y="5446.8" width="226.95" height="226.95"/><rect class="cls-1" x="226.95" y="5219.85" width="226.95" height="226.95"/><rect class="cls-1" x="226.95" y="4992.9" width="226.95" height="226.95"/><rect class="cls-1" y="5219.85" width="226.95" height="226.95"/><rect class="cls-1" y="4992.9" width="226.95" height="226.95"/><rect class="cls-1" x="1134.75" y="3858.15" width="226.95" height="226.95"/><rect class="cls-1" x="1134.75" y="3631.2" width="226.95" height="226.95"/><rect class="cls-1" x="1134.75" y="3404.25" width="226.95" height="226.95"/><rect class="cls-1" x="1361.7" y="3404.25" width="226.95" height="226.95"/><rect class="cls-1" x="1361.7" y="2950.35" width="226.95" height="226.95"/><rect class="cls-1" x="1588.65" y="2950.35" width="226.95" height="226.95"/><rect class="cls-1" x="1588.65" y="2723.4" width="226.95" height="226.95"/><rect class="cls-1" x="1815.6" y="2269.5" width="226.95" height="226.95"/><rect class="cls-1" x="2042.55" y="2269.5" width="226.95" height="226.95"/><rect class="cls-1" x="2042.55" y="2042.55" width="226.95" height="226.95"/><rect class="cls-1" x="2269.5" y="1815.6" width="226.95" height="226.95"/><rect class="cls-1" x="2723.4" y="1588.65" width="226.95" height="226.95"/><rect class="cls-1" x="1588.65" y="2496.45" width="226.95" height="226.95"/><rect class="cls-1" x="1588.65" y="3404.25" width="226.95" height="226.95"/><rect class="cls-1" x="907.8" y="3858.15" width="226.95" height="226.95"/><rect class="cls-1" x="907.8" y="3631.2" width="226.95" height="226.95"/><rect class="cls-1" y="4765.95" width="226.95" height="226.95"/><rect class="cls-1" x="453.9" y="4312.05" width="226.95" height="226.95"/><rect class="cls-1" x="680.85" y="4085.1" width="226.95" height="226.95"/><rect class="cls-1" x="907.8" y="5446.8" width="226.95" height="226.95"/><rect class="cls-1" x="1134.75" y="7035.45" width="226.95" height="226.95"/><rect class="cls-1" x="680.85" y="7035.45" width="226.95" height="226.95"/><rect class="cls-1" x="680.85" y="6581.55" width="226.95" height="226.95"/><rect class="cls-1" x="3404.25" y="7489.35" width="226.95" height="226.95"/><rect class="cls-1" x="3631.2" y="7489.35" width="226.95" height="226.95"/><rect class="cls-1" x="3177.3" y="7489.35" width="226.95" height="226.95"/><rect class="cls-7" x="3404.25" y="1361.7" width="226.95" height="226.95"/><rect class="cls-7" x="3631.2" y="1361.7" width="226.95" height="226.95"/><rect class="cls-3" x="3631.2" y="1134.75" width="226.95" height="226.95"/><rect class="cls-3" x="3858.15" y="1134.75" width="226.95" height="226.95"/><rect class="cls-3" x="4992.9" y="1134.75" width="226.95" height="226.95"/><rect class="cls-3" x="5673.75" y="907.8" width="226.95" height="226.95"/><rect class="cls-2" x="5673.75" y="1134.75" width="226.95" height="226.95"/><rect class="cls-3" x="6127.65" y="453.9" width="226.95" height="226.95"/><rect class="cls-3" x="6581.55" y="226.95" width="226.95" height="226.95"/><rect class="cls-3" x="7262.4" width="226.95" height="226.95"/><rect class="cls-2" x="4085.1" y="1134.75" width="226.95" height="226.95"/><rect class="cls-2" x="4312.05" y="1134.75" width="226.95" height="226.95"/><rect class="cls-2" x="4539" y="1134.75" width="226.95" height="226.95"/><rect class="cls-2" x="4765.95" y="1134.75" width="226.95" height="226.95"/><rect class="cls-6" x="5900.7" y="907.8" width="226.95" height="226.95"/><rect class="cls-6" x="6127.65" y="907.8" width="226.95" height="226.95"/><rect class="cls-6" x="6354.6" y="907.8" width="226.95" height="226.95"/><rect class="cls-2" x="5900.7" y="680.85" width="226.95" height="226.95"/><rect class="cls-2" x="6354.6" y="453.9" width="226.95" height="226.95"/><rect class="cls-5" x="6808.5" y="226.95" width="226.95" height="226.95"/><rect class="cls-5" x="7035.45" y="226.95" width="226.95" height="226.95"/><rect class="cls-6" x="3631.2" y="1588.65" width="226.95" height="226.95"/><rect class="cls-6" x="3858.15" y="1588.65" width="226.95" height="226.95"/><rect class="cls-6" x="3858.15" y="2723.4" width="226.95" height="226.95"/><rect class="cls-4" x="3858.15" y="1815.6" width="226.95" height="226.95"/><rect class="cls-4" x="4085.1" y="1588.65" width="226.95" height="226.95"/><rect class="cls-2" x="4312.05" y="1588.65" width="226.95" height="226.95"/><rect class="cls-5" x="3858.15" y="1361.7" width="226.95" height="226.95"/><rect class="cls-5" x="4085.1" y="1361.7" width="226.95" height="226.95"/><rect class="cls-7" x="3514.25" y="2610.45" width="226.95" height="226.95" transform="translate(6241.65 -1017.8) rotate(90)"/><rect class="cls-7" x="3514.25" y="2837.4" width="226.95" height="226.95" transform="translate(6468.6 -790.85) rotate(90)"/><rect class="cls-7" x="4875.95" y="4199.1" width="226.95" height="226.95" transform="translate(9192 -790.85) rotate(90)"/><rect class="cls-7" x="4875.95" y="3745.2" width="226.95" height="226.95" transform="translate(8738.1 -1244.75) rotate(90)"/><rect class="cls-7" x="5102.9" y="3745.2" width="226.95" height="226.95" transform="translate(8965.05 -1471.7) rotate(90)"/><rect class="cls-3" x="5329.85" y="3745.2" width="226.95" height="226.95" transform="translate(9192 -1698.65) rotate(90)"/><rect class="cls-7" x="4649" y="2156.55" width="226.95" height="226.95" transform="translate(6922.5 -2606.45) rotate(90)"/><rect class="cls-7" x="4649" y="1929.6" width="226.95" height="226.95" transform="translate(6695.55 -2833.4) rotate(90)"/><rect class="cls-7" x="4649" y="1702.65" width="226.95" height="226.95" transform="translate(6468.6 -3060.35) rotate(90)"/><rect class="cls-7" x="4875.95" y="1702.65" width="226.95" height="226.95" transform="translate(6695.55 -3287.3) rotate(90)"/><rect class="cls-7" x="5783.75" y="1475.7" width="226.95" height="226.95" transform="translate(7376.4 -4422.05) rotate(90)"/><rect class="cls-6" x="5783.75" y="1702.65" width="226.95" height="226.95" transform="translate(7603.35 -4195.1) rotate(90)"/><rect class="cls-2" x="5783.75" y="2156.55" width="226.95" height="226.95" transform="translate(8057.25 -3741.2) rotate(90)"/><rect class="cls-6" x="6010.7" y="1475.7" width="226.95" height="226.95" transform="translate(7603.35 -4649) rotate(90)"/><rect class="cls-7" x="7145.45" y="114" width="226.95" height="226.95" transform="translate(7376.4 -7145.45) rotate(90)"/><rect class="cls-12" x="7262.4" y="2950.35" width="226.95" height="226.95"/><rect class="cls-12" x="7489.35" y="2950.35" width="226.95" height="226.95"/><rect class="cls-12" x="7035.45" y="2950.35" width="226.95" height="226.95"/><rect class="cls-12" x="6808.5" y="2950.35" width="226.95" height="226.95"/><rect class="cls-12" x="6691.55" y="3064.35" width="226.95" height="226.95" transform="translate(9872.85 -3741.2) rotate(90)"/><rect class="cls-7" x="6691.55" y="567.9" width="226.95" height="226.95" transform="translate(7376.4 -6237.65) rotate(90)"/><rect class="cls-7" x="4422.05" y="1475.7" width="226.95" height="226.95" transform="translate(6014.7 -3060.35) rotate(90)"/><rect class="cls-7" x="4649" y="1475.7" width="226.95" height="226.95" transform="translate(6241.65 -3287.3) rotate(90)"/><rect class="cls-7" x="4875.95" y="1475.7" width="226.95" height="226.95" transform="translate(6468.6 -3514.25) rotate(90)"/><rect class="cls-7" x="5102.9" y="1475.7" width="226.95" height="226.95" transform="translate(6695.55 -3741.2) rotate(90)"/><rect class="cls-7" x="6237.65" y="794.85" width="226.95" height="226.95" transform="translate(7149.45 -5556.8) rotate(90)"/><rect class="cls-7" x="6237.65" y="1248.75" width="226.95" height="226.95" transform="translate(7603.35 -5102.9) rotate(90)"/><rect class="cls-5" x="6010.7" y="1248.75" width="226.95" height="226.95" transform="translate(7376.4 -4875.95) rotate(90)"/><rect class="cls-7" x="6464.6" y="794.85" width="226.95" height="226.95" transform="translate(7376.4 -5783.75) rotate(90)"/><rect class="cls-7" x="7826.3" y="794.85" width="226.95" height="226.95" transform="translate(8738.1 -7145.45) rotate(90)"/><rect class="cls-7" x="7145.45" y="2383.5" width="226.95" height="226.95" transform="translate(9645.9 -4875.95) rotate(90)"/><rect class="cls-7" x="6918.5" y="2383.5" width="226.95" height="226.95" transform="translate(9418.95 -4649) rotate(90)"/><rect class="cls-7" x="6918.5" y="2156.55" width="226.95" height="226.95" transform="translate(9192 -4875.95) rotate(90)"/><rect class="cls-7" x="4875.95" y="2156.55" width="226.95" height="226.95" transform="translate(7149.45 -2833.4) rotate(90)"/><rect class="cls-7" x="5102.9" y="1929.6" width="226.95" height="226.95" transform="translate(7149.45 -3287.3) rotate(90)"/><rect class="cls-7" x="4875.95" y="4426.05" width="226.95" height="226.95" transform="translate(9418.95 -563.9) rotate(90)"/><rect class="cls-2" x="4992.9" y="3858.15" width="226.95" height="226.95"/><rect class="cls-3" x="5219.85" y="3858.15" width="226.95" height="226.95"/><rect class="cls-2" x="5102.9" y="4199.1" width="226.95" height="226.95" transform="translate(9418.95 -1017.8) rotate(90)"/><rect class="cls-2" x="5102.9" y="4426.05" width="226.95" height="226.95" transform="translate(9645.9 -790.85) rotate(90)"/><rect class="cls-7" x="3514.25" y="3291.3" width="226.95" height="226.95" transform="translate(6922.5 -336.95) rotate(90)"/><rect class="cls-7" x="3177.3" y="1361.7" width="226.95" height="226.95"/><rect class="cls-1" x="3404.25" y="7716.3" width="226.95" height="226.95"/><rect class="cls-1" x="3631.2" y="7716.3" width="226.95" height="226.95"/><rect class="cls-1" x="3177.3" y="7716.3" width="226.95" height="226.95"/><rect class="cls-1" x="3404.25" y="7943.25" width="226.95" height="226.95"/><rect class="cls-1" x="3631.2" y="7943.25" width="226.95" height="226.95"/><rect class="cls-1" x="3858.15" y="7943.25" width="226.95" height="226.95"/><rect class="cls-1" x="3177.3" y="7943.25" width="226.95" height="226.95"/><rect class="cls-1" x="3404.25" y="8170.2" width="226.95" height="226.95"/><rect class="cls-1" x="3177.3" y="8170.2" width="226.95" height="226.95"/><rect x="6127.65" y="7262.4" width="226.95" height="226.95"/><rect x="6127.65" y="7489.35" width="226.95" height="226.95"/><rect class="cls-1" x="6581.55" y="8170.2" width="226.95" height="226.95"/><rect class="cls-2" x="6354.6" y="7035.45" width="226.95" height="226.95"/><rect class="cls-10" x="6581.55" y="6808.5" width="226.95" height="226.95"/><rect class="cls-10" x="7145.45" y="6695.55" width="226.95" height="226.95" transform="translate(14407.85 13504.05) rotate(180)"/><rect class="cls-10" x="6918.5" y="6695.55" width="226.95" height="226.95" transform="translate(13953.95 13504.05) rotate(180)"/><rect class="cls-10" x="6918.5" y="6468.6" width="226.95" height="226.95" transform="translate(13953.95 13050.15) rotate(180)"/><rect class="cls-10" x="6581.55" y="6581.55" width="226.95" height="226.95"/><rect class="cls-10" x="6237.65" y="6922.5" width="226.95" height="226.95" transform="translate(12592.25 13957.95) rotate(180)"/><rect class="cls-10" x="6354.6" y="6808.5" width="226.95" height="226.95"/><rect class="cls-2" x="6354.6" y="7262.4" width="226.95" height="226.95"/><rect class="cls-1" x="2269.5" y="7035.45" width="226.95" height="226.95"/><rect class="cls-1" x="2496.45" y="7262.4" width="226.95" height="226.95"/><rect class="cls-1" x="2950.35" y="7489.35" width="226.95" height="226.95"/><rect class="cls-3" x="907.8" y="8170.2" width="226.95" height="226.95"/><rect class="cls-2" x="1134.75" y="8170.2" width="226.95" height="226.95"/><rect class="cls-2" x="453.9" y="7716.3" width="226.95" height="226.95"/></svg>